<?xml version="1.0" encoding="utf-8"?>
<!-- Generator: Adobe Illustrator 19.2.1, SVG Export Plug-In . SVG Version: 6.00 Build 0)  -->
<svg version="1.1" id="Calque_1" xmlns="http://www.w3.org/2000/svg" xmlns:xlink="http://www.w3.org/1999/xlink" x="0px" y="0px"
	 width="19px" height="18px" viewBox="0 0 19 18" style="enable-background:new 0 0 19 18;" xml:space="preserve">
<g>
	<path id="LinkedIn" style="fill:#FFFFFF;" d="M18.6,11v6.7h-3.9v-6.3c0-1.6-0.6-2.6-2-2.6c-1.1,0-1.7,0.7-2,1.4
		c-0.1,0.2-0.1,0.6-0.1,0.9v6.5H6.7c0,0,0.1-10.6,0-11.7h3.9v1.7c0,0,0,0,0,0h0v0c0.5-0.8,1.4-1.9,3.5-1.9
		C16.7,5.7,18.6,7.4,18.6,11z M2.6,0.3c-1.3,0-2.2,0.9-2.2,2c0,1.1,0.8,2,2.1,2h0c1.4,0,2.2-0.9,2.2-2C4.8,1.2,4,0.3,2.6,0.3z
		 M0.7,17.7h3.9V6H0.7V17.7z"/>
</g>
</svg>
