<?xml version="1.0" encoding="utf-8"?>
<!-- Generator: Adobe Illustrator 19.2.1, SVG Export Plug-In . SVG Version: 6.00 Build 0)  -->
<svg version="1.1" id="Calque_1" xmlns="http://www.w3.org/2000/svg" xmlns:xlink="http://www.w3.org/1999/xlink" x="0px" y="0px"
	 width="12px" height="12px" viewBox="0 0 12 12" style="enable-background:new 0 0 12 12;" xml:space="preserve">
<path style="fill-rule:evenodd;clip-rule:evenodd;fill:#FFFFFF;" d="M12,10.6c0,0.4-0.2,0.7-0.4,1c-0.3,0.3-0.6,0.4-1,0.4
	c-0.4,0-0.8-0.1-1.1-0.4L6,8.1l-3.4,3.4C2.2,11.9,1.8,12,1.4,12c-0.4,0-0.7-0.2-1-0.4c-0.3-0.3-0.4-0.6-0.4-1c0-0.4,0.1-0.8,0.4-1.1
	L3.9,6L0.4,2.6C0.1,2.2,0,1.8,0,1.4c0-0.4,0.2-0.7,0.4-1C0.7,0.2,1.1,0,1.4,0c0.4,0,0.8,0.1,1.1,0.4L6,3.9l3.4-3.4
	C9.8,0.1,10.2,0,10.6,0c0.4,0,0.7,0.2,1,0.4c0.3,0.3,0.4,0.6,0.4,1c0,0.4-0.1,0.8-0.4,1.1L8.1,6l3.4,3.4C11.9,9.8,12,10.2,12,10.6z"
	/>
</svg>
