<?xml version="1.0" encoding="utf-8"?>
<!-- Generator: Adobe Illustrator 19.2.1, SVG Export Plug-In . SVG Version: 6.00 Build 0)  -->
<svg version="1.1" id="Calque_1" xmlns="http://www.w3.org/2000/svg" xmlns:xlink="http://www.w3.org/1999/xlink" x="0px" y="0px"
	 width="32px" height="24px" viewBox="0 0 32 24" style="enable-background:new 0 0 32 24;" xml:space="preserve">
<g>
	<g>
		<g>
			<path style="fill:#FFFFFF;" d="M0.5,6.7c0-4.8,5-6.2,8.1-6.2c3,0,5.5,0.8,8.1,1.5c0.9-1.4,1-1.5,1.1-1.5c0.4,0,0.6,0.4,0.6,0.7
				c0,0.3-0.2,0.7-0.2,0.7l-0.3,0.5c0.2,0,0.4,0.1,0.7,0.2c1.6-1.1,3.4-1.8,5.3-1.8c0.7,0,2.4,0,2.4,1.4c0,1.6-1.8,1.7-2.6,1.7
				c-1.7,0-3.4-0.3-5.1-0.7c-1,0.7-1.9,1.5-2.7,2.4l0,0h0.6c0.2,0,0.6,0,0.6,0.3C17.1,6,16.7,6,16.5,6h-0.9c-2.5,3-5.5,9.7-7.8,9.7
				c-1,0-2.4-0.3-2.4-1.6c0-0.4,0.5-1.5,2.5-1.5c0.6,0,0.9,0.3,0.9,0.5S8.5,13.6,8,13.6c-0.3,0-0.6-0.1-0.9-0.3
				C6.6,13.5,6,13.8,6,14.1c0,0.6,1,1,1.7,1c1.1,0,3.7-5.2,5.8-8.4c-0.5-0.6-1.8-0.9-1.8-1c0-0.1,0-0.3,0.7-0.3h2
				c0.8-1.2,1.5-2.3,2.1-3.1C13.8,1.7,11.4,1,8.5,1C5.3,1,1.4,2.5,1,5.8c0.1,0.6,0.5,0.9,0.5,1.4c0,0.4-0.1,0.6-0.3,0.7
				C0.8,8,0.5,7.5,0.5,6.7z M13.9,6h-0.6c0.1,0.1,0.3,0.2,0.4,0.3C13.8,6.2,13.8,6.1,13.9,6z M17.1,3.6c0.3-0.3,0.6-0.5,0.9-0.8
				c-0.1,0-0.3-0.1-0.4-0.1L17.1,3.6z M25.8,2.1c0-0.8-1.2-0.9-2-0.9c-1.6,0-3.1,0.6-4.5,1.4c1.5,0.3,3,0.6,4.5,0.6
				C24.4,3.2,25.8,3,25.8,2.1z"/>
			<path style="fill:#FFFFFF;" d="M19.4,10.6c0.1,0.1-0.2,0.7-0.5,1.1c-0.8,0.9-1.3,1.3-2.3,1.9c-0.9,0.5-3.4,1.8-3.9,0
				c-0.5-1.9,2.3-6,4.1-6.8c0.6-0.3,1.5-0.3,1.8,0.5c1,2.8-2.6,4.3-4.5,5.2c-0.2,0-0.3,0.1-0.5,0.1c-0.2,0.5-0.2,0.9-0.1,1.2
				c0.3,0.6,2.1-0.2,2.9-0.7c1.1-0.7,1.4-1,2.1-1.7C18.7,11,19.2,10.5,19.4,10.6z M13.8,11.9c2-0.8,4.7-2.2,4.1-4.3
				c-0.1-0.3-0.6,0-1,0.3C15.7,8.9,14.5,10.4,13.8,11.9z"/>
			<path style="fill:#FFFFFF;" d="M24.5,10.6c0.1,0.1-0.2,0.7-0.5,1.1c-0.8,0.9-1.3,1.3-2.3,1.9c-0.9,0.5-3.4,1.8-3.9,0
				c-0.5-1.9,2.3-6,4.1-6.8c0.6-0.3,1.5-0.3,1.8,0.5c1,2.8-2.6,4.3-4.5,5.2c-0.2,0-0.3,0.1-0.5,0.1c-0.2,0.5-0.2,0.9-0.1,1.2
				c0.3,0.6,2.1-0.2,2.9-0.7c1.1-0.7,1.4-1,2.1-1.7C23.8,11,24.3,10.5,24.5,10.6z M18.9,11.9c2-0.8,4.7-2.2,4.1-4.3
				c-0.1-0.3-0.6,0-1,0.3C20.9,8.9,19.7,10.4,18.9,11.9z"/>
			<path style="fill:#FFFFFF;" d="M23.9,13.6c0,0.3,0.2,0.3,0.3,0.3c0.8,0,3.1-1.8,3.1-1.9c0,0,0.3-0.1,0.3,0c0,0.3-0.3,0.5-0.3,0.5
				c-2.3,2-3.1,1.9-3.1,1.9c-1,0-0.9-0.9-0.9-0.9c0-3.3,7.4-12.1,7.6-12.1c0.2-0.2,0.3-0.2,0.4-0.2c0.3,0,0.4,0.4,0.4,0.6
				c0,0.4-0.2,0.7-0.2,0.7l-3,3.7C24,12.2,23.9,13.3,23.9,13.6z"/>
		</g>
		<g>
			<path style="fill:#FFFFFF;" d="M6.3,20.5v2.8H4.9v-6.7h4.7v1.1H6.3v1.5h2.9v1.2C9.2,20.5,6.3,20.5,6.3,20.5z"/>
			<path style="fill:#FFFFFF;" d="M12.7,23.5c-1,0-1.8-0.3-2.4-0.9C9.7,22,9.5,21.1,9.5,20c0-0.6,0.1-1.1,0.2-1.5
				c0.1-0.4,0.3-0.8,0.6-1.1c0.3-0.3,0.6-0.6,1-0.7c0.4-0.1,0.9-0.3,1.4-0.3s1,0.1,1.4,0.3c0.4,0.1,0.7,0.4,1,0.7
				c0.3,0.3,0.5,0.7,0.6,1.1c0.1,0.4,0.2,1,0.2,1.5c0,1.1-0.3,2-0.8,2.6C14.5,23.2,13.7,23.5,12.7,23.5z M12.7,22.3
				c0.3,0,0.5,0,0.7-0.1c0.2-0.1,0.4-0.2,0.6-0.4c0.1-0.2,0.3-0.4,0.4-0.7c0.1-0.3,0.1-0.6,0.1-1c0-0.8-0.1-1.4-0.4-1.8
				c-0.3-0.4-0.7-0.6-1.3-0.6c-0.6,0-1,0.2-1.4,0.6c-0.3,0.4-0.5,1-0.5,1.8c0,0.8,0.1,1.4,0.5,1.7C11.6,22.1,12.1,22.3,12.7,22.3z"
				/>
			<path style="fill:#FFFFFF;" d="M19.3,23.5c-1,0-1.8-0.3-2.4-0.9c-0.6-0.6-0.8-1.5-0.8-2.6c0-0.6,0.1-1.1,0.2-1.5
				c0.1-0.4,0.3-0.8,0.6-1.1c0.3-0.3,0.6-0.6,1-0.7c0.4-0.1,0.9-0.3,1.4-0.3c0.5,0,1,0.1,1.4,0.3c0.4,0.1,0.7,0.4,1,0.7
				c0.3,0.3,0.5,0.7,0.6,1.1c0.1,0.4,0.2,1,0.2,1.5c0,1.1-0.3,2-0.8,2.6C21.2,23.2,20.3,23.5,19.3,23.5z M19.3,22.3
				c0.3,0,0.5,0,0.7-0.1c0.2-0.1,0.4-0.2,0.6-0.4c0.1-0.2,0.3-0.4,0.4-0.7c0.1-0.3,0.1-0.6,0.1-1c0-0.8-0.1-1.4-0.4-1.8
				c-0.3-0.4-0.7-0.6-1.3-0.6c-0.6,0-1,0.2-1.4,0.6c-0.3,0.4-0.5,1-0.5,1.8c0,0.8,0.1,1.4,0.5,1.7C18.3,22.1,18.8,22.3,19.3,22.3z"
				/>
			<path style="fill:#FFFFFF;" d="M22.9,23.3v-6.7h2.6c0.4,0,0.9,0.1,1.3,0.2s0.7,0.4,1,0.6c0.3,0.3,0.5,0.6,0.6,1
				c0.1,0.4,0.2,0.9,0.2,1.4c0,0.5-0.1,1-0.2,1.4c-0.1,0.4-0.3,0.8-0.6,1.1c-0.3,0.3-0.6,0.5-0.9,0.7c-0.4,0.1-0.7,0.3-1.2,0.3
				L22.9,23.3L22.9,23.3z M25.4,22.1c0.6,0,1-0.2,1.3-0.6c0.3-0.4,0.4-1,0.4-1.7c0-0.4,0-0.7-0.1-1c-0.1-0.3-0.2-0.5-0.3-0.7
				s-0.3-0.3-0.6-0.4c-0.2-0.1-0.5-0.1-0.9-0.1h-1v4.4H25.4z"/>
		</g>
	</g>
</g>
</svg>
