<?xml version="1.0" encoding="utf-8"?>
<!-- Generator: Adobe Illustrator 19.2.1, SVG Export Plug-In . SVG Version: 6.00 Build 0)  -->
<svg version="1.1" id="Calque_1" xmlns="http://www.w3.org/2000/svg" xmlns:xlink="http://www.w3.org/1999/xlink" x="0px" y="0px"
	 viewBox="0 0 22 18" style="enable-background:new 0 0 22 18;" xml:space="preserve">
<style type="text/css">
	.st0{fill:#FFFFFF;}
	.st1{fill-rule:evenodd;clip-rule:evenodd;fill:#FFFFFF;}
</style>
<g id="Mail">
	<g>
		<path class="st1" d="M20.3,0.3H1.7c-0.7,0-1.3,0.6-1.3,1.3v14.7c0,0.7,0.6,1.3,1.3,1.3h18.7c0.7,0,1.3-0.6,1.3-1.3V1.7
			C21.7,0.9,21.1,0.3,20.3,0.3z M19.7,15.7H2.3V5.5l7.8,6.6c0.2,0.2,0.6,0.3,0.9,0.3c0.3,0,0.6-0.1,0.9-0.3l7.8-6.6V15.7z M19.7,2.9
			L11,10.1L2.3,2.9V2.3h17.3V2.9z"/>
	</g>
</g>
</svg>
