<svg id="Calque_1" xmlns="http://www.w3.org/2000/svg" viewBox="0 0 120 36"><style>.st0{fill:#fff}</style><path class="st0" d="M.1 14.4C.1 3.6 11.3.5 18.3.5c6.7 0 12.5 1.7 18.3 3.3C38.7.7 38.8.5 39 .5c1 0 1.3.9 1.3 1.5 0 .8-.4 1.5-.4 1.5l-.6 1c.5.1 1 .2 1.5.4 3.5-2.4 7.5-4 11.8-4 1.6 0 5.5-.1 5.5 3.1 0 3.5-4.1 3.7-5.7 3.7-3.9 0-7.7-.7-11.4-1.5-2.3 1.5-4.3 3.4-6.1 5.4l-.1.1H36c.5 0 1.3.1 1.3.6 0 .6-.9.6-1.3.6h-2c-5.6 6.8-12.4 21.8-17.4 21.8-2.3 0-5.4-.7-5.4-3.5 0-.9 1.1-3.3 5.6-3.3 1.2 0 2.1.6 2.1 1.1 0 .6-.9 1-2 1-.7 0-1.3-.3-2.1-.7-1 .4-2.4 1-2.4 1.9 0 1.4 2.3 2.3 3.8 2.3 2.6 0 8.2-11.7 13-18.9-1.1-1.3-4.1-2-4.1-2.3 0-.3 0-.6 1.5-.6h4.5c1.9-2.6 3.5-5 4.9-6.8-5.8-1.6-11.3-3.2-17.6-3.2-7.3 0-16 3.4-17.1 10.9.3 1.3 1 1.9 1 3.2 0 .9-.3 1.4-.7 1.5-.7 0-1.5-1.2-1.5-2.9zm30.3-1.5h-1.3c.3.2.6.5.9.8.2-.3.3-.5.4-.8zm7.2-5.4c.7-.6 1.3-1.1 2-1.7-.3-.1-.6-.2-.9-.2l-1.1 1.9zM57.2 4c0-1.8-2.8-1.9-4.6-1.9-3.6 0-7.1 1.2-10.2 3.2 3.3.7 6.7 1.2 10.1 1.2 1.6.1 4.7-.4 4.7-2.5z"/><path class="st0" d="M42.7 23.3c.3.2-.5 1.6-1.1 2.5-1.8 2.1-3 3-5.2 4.3-2.1 1.1-7.6 4-8.8 0-1.1-4.3 5.1-13.4 9.2-15.4 1.4-.8 3.3-.8 4 1 2.3 6.4-5.9 9.6-10.1 11.6-.4.1-.7.2-1 .3-.4 1-.5 2-.3 2.8.6 1.2 4.7-.4 6.5-1.5 2.6-1.6 3.1-2.2 4.9-3.9.4-.9 1.6-1.9 1.9-1.7zm-12.5 2.8c4.4-1.8 10.5-5 9.3-9.5-.3-.6-1.3 0-2.3.8-2.7 1.9-5.3 5.4-7 8.7z"/><path class="st0" d="M54.3 23.3c.3.2-.5 1.6-1.1 2.5-1.8 2.1-3 3-5.2 4.3-2.1 1.1-7.6 4-8.8 0-1.1-4.3 5.1-13.4 9.2-15.4 1.4-.8 3.3-.8 4 1 2.3 6.4-5.9 9.6-10.1 11.6-.4.1-.7.2-1 .3-.4 1-.5 2-.3 2.8.6 1.2 4.7-.4 6.5-1.5 2.6-1.6 3.1-2.2 4.9-3.9.4-.9 1.5-1.9 1.9-1.7zm-12.5 2.8c4.4-1.8 10.5-5 9.3-9.5-.3-.6-1.3 0-2.3.8-2.7 1.9-5.4 5.4-7 8.7z"/><path class="st0" d="M52.8 30c0 .7.4.8.8.8 1.7 0 6.9-4.1 6.9-4.3.1-.1.7-.2.7.1.1.6-.7 1.1-.7 1.1-5.2 4.6-6.9 4.3-7.1 4.3-2.3.1-2.1-2.1-2.1-2.1 0-7.3 16.6-27.2 17.2-27.2.4-.4.7-.5.9-.5.7 0 .9 1 .9 1.3 0 .9-.5 1.6-.5 1.6L63 13.6C53 26.8 52.8 29.3 52.8 30z"/><g><path class="st0" d="M69.9 24.6v6.3h-3.1v-15h10.7v2.6H70v3.4h6.6v2.6h-6.7zM84.4 31.4c-2.3 0-4.1-.7-5.3-2-1.2-1.4-1.9-3.3-1.9-5.8 0-1.3.2-2.4.5-3.4s.8-1.9 1.4-2.6c.6-.7 1.4-1.2 2.3-1.6.9-.4 1.9-.6 3.1-.6 1.1 0 2.2.2 3.1.6.9.4 1.6.9 2.2 1.6.6.7 1.1 1.6 1.4 2.6.3 1 .5 2.2.5 3.4 0 2.6-.6 4.5-1.8 5.8-1.4 1.3-3.2 2-5.5 2zm0-2.7c.6 0 1.1-.1 1.6-.3.5-.2.9-.5 1.3-.9s.7-.9.9-1.6c.2-.6.3-1.4.3-2.3 0-1.8-.3-3.1-1-4-.7-.9-1.7-1.4-3-1.4s-2.3.5-3 1.4c-.7.9-1.1 2.3-1.1 4 0 1.8.4 3.1 1.1 3.9.6.8 1.6 1.2 2.9 1.2zM99.4 31.4c-2.3 0-4.1-.7-5.3-2-1.2-1.4-1.9-3.3-1.9-5.8 0-1.3.2-2.4.5-3.4s.8-1.9 1.4-2.6c.6-.7 1.4-1.2 2.3-1.6.9-.4 1.9-.6 3.1-.6 1.1 0 2.2.2 3.1.6.9.4 1.6.9 2.2 1.6.6.7 1.1 1.6 1.4 2.6.3 1 .5 2.2.5 3.4 0 2.6-.6 4.5-1.8 5.8-1.4 1.3-3.2 2-5.5 2zm0-2.7c.6 0 1.1-.1 1.6-.3.5-.2.9-.5 1.3-.9s.7-.9.9-1.6c.2-.6.3-1.4.3-2.3 0-1.8-.3-3.1-1-4-.7-.9-1.7-1.4-3-1.4s-2.3.5-3 1.4c-.7.9-1.1 2.3-1.1 4 0 1.8.4 3.1 1.1 3.9.6.8 1.6 1.2 2.9 1.2zM107.4 30.9v-15h5.8c1 0 1.9.2 2.8.5.9.3 1.6.8 2.2 1.5.6.6 1.1 1.4 1.4 2.3.3.9.5 1.9.5 3.1 0 1.1-.2 2.2-.5 3.1-.3.9-.7 1.7-1.3 2.4-.6.7-1.3 1.2-2.1 1.6-.8.4-1.7.6-2.6.6h-6.2zm5.6-2.6c1.4 0 2.4-.4 3-1.3.6-.8.9-2.1.9-3.8 0-.8-.1-1.6-.2-2.2-.2-.6-.4-1.1-.7-1.5-.3-.4-.8-.7-1.3-.8-.5-.2-1.2-.3-1.9-.3h-2.3v9.8h2.5z"/></g></svg>