<svg id="Calque_1" xmlns="http://www.w3.org/2000/svg" viewBox="0 0 120 120"><style>.st0{fill:#ff1a4b}.st1{fill:#fff}</style><path class="st0" d="M0 0h120v120H0z"/><path class="st1" d="M18 43.2c0-12.9 13.4-16.7 21.9-16.7 8 0 15 2.1 22 4 2.5-3.7 2.6-4 2.9-4 1.1 0 1.6 1 1.6 1.8 0 .9-.5 1.8-.5 1.8l-.7 1.3c.6.1 1.1.2 1.8.5 4.2-2.9 9.1-4.8 14.2-4.8 1.9 0 6.6-.1 6.6 3.7 0 4.2-4.9 4.5-6.9 4.5-4.7 0-9.3-.8-13.8-1.8-2.7 1.8-5.2 4.1-7.3 6.5h1.5c.6 0 1.6.1 1.6.7 0 .7-1 .7-1.6.7h-2.4c-6.8 8.1-14.9 26.2-21 26.2-2.7 0-6.5-.8-6.5-4.2 0-1 1.4-4 6.8-4 1.5 0 2.5.7 2.5 1.4s-1 1.1-2.4 1.1c-.8 0-1.6-.3-2.5-.8-1.3.5-2.9 1.3-2.9 2.3 0 1.7 2.7 2.8 4.6 2.8 3.1 0 9.9-14.1 15.6-22.7-1.4-1.6-4.9-2.4-4.9-2.8 0-.3 0-.7 1.8-.7h5.4c2.2-3.2 4.1-6.1 5.7-8.3-7-1.9-13.6-3.9-21.2-3.9-8.8 0-19.3 4.1-20.5 13.1.3 1.6 1.3 2.3 1.3 3.9 0 1-.3 1.7-.8 1.8-1 .1-1.9-1.3-1.9-3.4zm36.4-1.8h-1.6c.3.2.7.6 1 .9.3-.3.4-.6.6-.9zM63 35l2.4-2.1c-.3-.1-.7-.2-1-.2L63 35zm23.6-4.3c0-2.2-3.3-2.3-5.5-2.3-4.4 0-8.5 1.5-12.3 3.9 4 .8 8 1.5 12.1 1.5 1.9 0 5.7-.6 5.7-3.1z"/><path class="st1" d="M69.2 53.9c.3.2-.6 1.9-1.4 3-2.2 2.5-3.6 3.6-6.3 5.2-2.5 1.4-9.2 4.8-10.5 0-1.4-5.2 6.1-16.2 11-18.4 1.7-.9 4-.9 4.8 1.3 2.8 7.7-7.1 11.6-12.1 14-.5.1-.8.2-1.3.3-.5 1.3-.6 2.4-.3 3.3.7 1.5 5.6-.5 7.8-1.8 3.1-1.9 3.8-2.6 5.8-4.7.7-1.2 2-2.5 2.5-2.2zm-15 3.4c5.3-2.2 12.6-6 11.2-11.5-.3-.7-1.6 0-2.8.9-3.3 2.4-6.5 6.6-8.4 10.6z"/><path class="st1" d="M83.1 53.9c.3.2-.6 1.9-1.4 3-2.2 2.5-3.6 3.6-6.3 5.2-2.5 1.4-9.2 4.8-10.5 0-1.4-5.2 6.1-16.2 11-18.4 1.7-.9 4-.9 4.8 1.3 2.8 7.7-7.1 11.6-12.1 14-.5.1-.8.2-1.3.3-.5 1.3-.6 2.4-.3 3.3.7 1.5 5.6-.5 7.8-1.8 3.1-1.9 3.8-2.6 5.8-4.7.6-1.2 2-2.5 2.5-2.2zM68 57.3c5.3-2.2 12.6-6 11.2-11.5-.3-.7-1.6 0-2.8.9-3.2 2.4-6.4 6.6-8.4 10.6z"/><path class="st1" d="M81.3 62c0 .8.5.9.9.9 2.1 0 8.3-4.9 8.3-5.2.1-.1.8-.2.8.1.1.7-.8 1.4-.8 1.4-6.3 5.5-8.3 5.2-8.5 5.2-2.8.1-2.5-2.5-2.5-2.5 0-8.8 19.9-32.7 20.6-32.7.5-.5.8-.6 1-.6.8 0 1 1.1 1 1.6 0 1-.6 1.9-.6 1.9l-8.1 10c-11.8 16-12.1 19-12.1 19.9z"/><g><path class="st1" d="M33.7 80.5v7.6h-3.8v-18h12.8v3.1h-9v4.1h7.9v3.2h-7.9zM51 88.7c-2.8 0-4.9-.8-6.4-2.4-1.5-1.6-2.2-4-2.2-7 0-1.5.2-2.9.6-4.1.4-1.2.9-2.2 1.7-3.1.7-.8 1.6-1.5 2.7-1.9 1.1-.4 2.3-.7 3.7-.7 1.4 0 2.6.2 3.7.7 1.1.4 2 1.1 2.7 1.9.7.8 1.3 1.9 1.7 3.1.4 1.2.6 2.6.6 4.1 0 3.1-.7 5.4-2.2 7-1.7 1.6-3.8 2.4-6.6 2.4zm0-3.2c.7 0 1.3-.1 1.9-.4.6-.2 1.1-.6 1.6-1.1.4-.5.8-1.1 1-1.9.3-.8.4-1.7.4-2.8 0-2.1-.4-3.7-1.2-4.8-.8-1.1-2-1.7-3.6-1.7s-2.8.6-3.7 1.7c-.8 1.1-1.3 2.7-1.3 4.8 0 2.1.4 3.7 1.3 4.7.8 1 2 1.5 3.6 1.5zM69.1 88.7c-2.8 0-4.9-.8-6.4-2.4-1.5-1.6-2.2-4-2.2-7 0-1.5.2-2.9.6-4.1.4-1.2.9-2.2 1.7-3.1.7-.8 1.6-1.5 2.7-1.9 1.1-.4 2.3-.7 3.7-.7 1.4 0 2.6.2 3.7.7 1.1.4 2 1.1 2.7 1.9.7.8 1.3 1.9 1.7 3.1.4 1.2.6 2.6.6 4.1 0 3.1-.7 5.4-2.2 7-1.7 1.6-3.9 2.4-6.6 2.4zm0-3.2c.7 0 1.3-.1 1.9-.4.6-.2 1.1-.6 1.6-1.1.4-.5.8-1.1 1-1.9.3-.8.4-1.7.4-2.8 0-2.1-.4-3.7-1.2-4.8-.8-1.1-2-1.7-3.6-1.7s-2.8.6-3.7 1.7c-.8 1.1-1.3 2.7-1.3 4.8 0 2.1.4 3.7 1.3 4.7.8 1 2 1.5 3.6 1.5zM78.7 88.1v-18h7c1.2 0 2.3.2 3.4.6s1.9 1 2.6 1.7c.7.8 1.3 1.7 1.7 2.8.4 1.1.6 2.3.6 3.7 0 1.4-.2 2.6-.6 3.8-.4 1.1-.9 2.1-1.6 2.9-.7.8-1.5 1.4-2.5 1.9-1 .4-2 .7-3.2.7h-7.4zm6.8-3.1c1.6 0 2.8-.5 3.6-1.5.7-1 1.1-2.6 1.1-4.6 0-1-.1-1.9-.3-2.6-.2-.7-.5-1.3-.9-1.8s-.9-.8-1.6-1c-.6-.2-1.4-.3-2.3-.3h-2.8V85h3.2z"/></g></svg>