<?xml version="1.0" encoding="utf-8"?>
<!-- Generator: Adobe Illustrator 19.2.1, SVG Export Plug-In . SVG Version: 6.00 Build 0)  -->
<svg version="1.1" id="Calque_1" xmlns="http://www.w3.org/2000/svg" xmlns:xlink="http://www.w3.org/1999/xlink" x="0px" y="0px"
	 viewBox="0 0 120 120" style="enable-background:new 0 0 120 120;" xml:space="preserve">
<style type="text/css">
	.st0{fill:#FF1A4B;}
	.st1{fill:#FFFFFF;}
</style>
<g>
	<rect class="st0" width="120" height="120"/>
	<g>
		<g>
			<g>
				<path class="st1" d="M18,43.2c0-12.9,13.4-16.7,21.9-16.7c8,0,15,2.1,22,4c2.5-3.7,2.6-4,2.9-4c1.1,0,1.6,1,1.6,1.8
					c0,0.9-0.5,1.8-0.5,1.8l-0.7,1.3c0.6,0.1,1.1,0.2,1.8,0.5c4.2-2.9,9.1-4.8,14.2-4.8c1.9,0,6.6-0.1,6.6,3.7
					c0,4.2-4.9,4.5-6.9,4.5c-4.7,0-9.3-0.8-13.8-1.8c-2.7,1.8-5.2,4.1-7.3,6.5L59.8,40h1.5c0.6,0,1.6,0.1,1.6,0.7
					c0,0.7-1,0.7-1.6,0.7h-2.4c-6.8,8.1-14.9,26.2-21,26.2c-2.7,0-6.5-0.8-6.5-4.2c0-1,1.4-4,6.8-4c1.5,0,2.5,0.7,2.5,1.4
					c0,0.7-1,1.1-2.4,1.1c-0.8,0-1.6-0.3-2.5-0.8c-1.3,0.5-2.9,1.3-2.9,2.3c0,1.7,2.7,2.8,4.6,2.8c3.1,0,9.9-14.1,15.6-22.7
					c-1.4-1.6-4.9-2.4-4.9-2.8c0-0.3,0-0.7,1.8-0.7h5.4c2.2-3.2,4.1-6.1,5.7-8.3c-7-1.9-13.6-3.9-21.2-3.9
					c-8.8,0-19.3,4.1-20.5,13.1c0.3,1.6,1.3,2.3,1.3,3.9c0,1-0.3,1.7-0.8,1.8C18.9,46.7,18,45.3,18,43.2z M54.4,41.4h-1.6
					c0.3,0.2,0.7,0.6,1,0.9C54.1,42,54.2,41.7,54.4,41.4z M63,35c0.8-0.7,1.6-1.4,2.4-2.1c-0.3-0.1-0.7-0.2-1-0.2L63,35z M86.6,30.7
					c0-2.2-3.3-2.3-5.5-2.3c-4.4,0-8.5,1.5-12.3,3.9c4,0.8,8,1.5,12.1,1.5C82.8,33.8,86.6,33.2,86.6,30.7z"/>
				<path class="st1" d="M69.2,53.9c0.3,0.2-0.6,1.9-1.4,3c-2.2,2.5-3.6,3.6-6.3,5.2c-2.5,1.4-9.2,4.8-10.5,0
					c-1.4-5.2,6.1-16.2,11-18.4c1.7-0.9,4-0.9,4.8,1.3c2.8,7.7-7.1,11.6-12.1,14c-0.5,0.1-0.8,0.2-1.3,0.3c-0.5,1.3-0.6,2.4-0.3,3.3
					c0.7,1.5,5.6-0.5,7.8-1.8c3.1-1.9,3.8-2.6,5.8-4.7C67.4,54.9,68.7,53.6,69.2,53.9z M54.2,57.3c5.3-2.2,12.6-6,11.2-11.5
					c-0.3-0.7-1.6,0-2.8,0.9C59.3,49.1,56.1,53.3,54.2,57.3z"/>
				<path class="st1" d="M83.1,53.9c0.3,0.2-0.6,1.9-1.4,3c-2.2,2.5-3.6,3.6-6.3,5.2c-2.5,1.4-9.2,4.8-10.5,0
					c-1.4-5.2,6.1-16.2,11-18.4c1.7-0.9,4-0.9,4.8,1.3c2.8,7.7-7.1,11.6-12.1,14c-0.5,0.1-0.8,0.2-1.3,0.3c-0.5,1.3-0.6,2.4-0.3,3.3
					c0.7,1.5,5.6-0.5,7.8-1.8c3.1-1.9,3.8-2.6,5.8-4.7C81.2,54.9,82.6,53.6,83.1,53.9z M68,57.3c5.3-2.2,12.6-6,11.2-11.5
					c-0.3-0.7-1.6,0-2.8,0.9C73.2,49.1,70,53.3,68,57.3z"/>
				<path class="st1" d="M81.3,62c0,0.8,0.5,0.9,0.9,0.9c2.1,0,8.3-4.9,8.3-5.2c0.1-0.1,0.8-0.2,0.8,0.1c0.1,0.7-0.8,1.4-0.8,1.4
					c-6.3,5.5-8.3,5.2-8.5,5.2c-2.8,0.1-2.5-2.5-2.5-2.5c0-8.8,19.9-32.7,20.6-32.7c0.5-0.5,0.8-0.6,1-0.6c0.8,0,1,1.1,1,1.6
					c0,1-0.6,1.9-0.6,1.9l-8.1,10C81.6,58.1,81.3,61.1,81.3,62z"/>
			</g>
			<g>
				<path class="st1" d="M33.7,80.5v7.6h-3.8v-18h12.8v3.1h-9v4.1h7.9v3.2H33.7z"/>
				<path class="st1" d="M51,88.7c-2.8,0-4.9-0.8-6.4-2.4c-1.5-1.6-2.2-4-2.2-7c0-1.5,0.2-2.9,0.6-4.1c0.4-1.2,0.9-2.2,1.7-3.1
					c0.7-0.8,1.6-1.5,2.7-1.9c1.1-0.4,2.3-0.7,3.7-0.7c1.4,0,2.6,0.2,3.7,0.7c1.1,0.4,2,1.1,2.7,1.9c0.7,0.8,1.3,1.9,1.7,3.1
					c0.4,1.2,0.6,2.6,0.6,4.1c0,3.1-0.7,5.4-2.2,7C55.9,87.9,53.8,88.7,51,88.7z M51,85.5c0.7,0,1.3-0.1,1.9-0.4
					c0.6-0.2,1.1-0.6,1.6-1.1c0.4-0.5,0.8-1.1,1-1.9c0.3-0.8,0.4-1.7,0.4-2.8c0-2.1-0.4-3.7-1.2-4.8c-0.8-1.1-2-1.7-3.6-1.7
					c-1.6,0-2.8,0.6-3.7,1.7c-0.8,1.1-1.3,2.7-1.3,4.8c0,2.1,0.4,3.7,1.3,4.7C48.2,85,49.4,85.5,51,85.5z"/>
				<path class="st1" d="M69.1,88.7c-2.8,0-4.9-0.8-6.4-2.4c-1.5-1.6-2.2-4-2.2-7c0-1.5,0.2-2.9,0.6-4.1c0.4-1.2,0.9-2.2,1.7-3.1
					c0.7-0.8,1.6-1.5,2.7-1.9c1.1-0.4,2.3-0.7,3.7-0.7c1.4,0,2.6,0.2,3.7,0.7c1.1,0.4,2,1.1,2.7,1.9c0.7,0.8,1.3,1.9,1.7,3.1
					c0.4,1.2,0.6,2.6,0.6,4.1c0,3.1-0.7,5.4-2.2,7C74,87.9,71.8,88.7,69.1,88.7z M69.1,85.5c0.7,0,1.3-0.1,1.9-0.4
					c0.6-0.2,1.1-0.6,1.6-1.1c0.4-0.5,0.8-1.1,1-1.9c0.3-0.8,0.4-1.7,0.4-2.8c0-2.1-0.4-3.7-1.2-4.8c-0.8-1.1-2-1.7-3.6-1.7
					c-1.6,0-2.8,0.6-3.7,1.7c-0.8,1.1-1.3,2.7-1.3,4.8c0,2.1,0.4,3.7,1.3,4.7C66.3,85,67.5,85.5,69.1,85.5z"/>
				<path class="st1" d="M78.7,88.1v-18h7c1.2,0,2.3,0.2,3.4,0.6s1.9,1,2.6,1.7c0.7,0.8,1.3,1.7,1.7,2.8c0.4,1.1,0.6,2.3,0.6,3.7
					c0,1.4-0.2,2.6-0.6,3.8c-0.4,1.1-0.9,2.1-1.6,2.9c-0.7,0.8-1.5,1.4-2.5,1.9c-1,0.4-2,0.7-3.2,0.7H78.7z M85.5,85
					c1.6,0,2.8-0.5,3.6-1.5c0.7-1,1.1-2.6,1.1-4.6c0-1-0.1-1.9-0.3-2.6c-0.2-0.7-0.5-1.3-0.9-1.8c-0.4-0.5-0.9-0.8-1.6-1
					c-0.6-0.2-1.4-0.3-2.3-0.3h-2.8V85H85.5z"/>
			</g>
		</g>
	</g>
</g>
</svg>
