<?xml version="1.0" encoding="utf-8"?>
<!-- Generator: Adobe Illustrator 19.2.1, SVG Export Plug-In . SVG Version: 6.00 Build 0)  -->
<svg version="1.1" id="Calque_1" xmlns="http://www.w3.org/2000/svg" xmlns:xlink="http://www.w3.org/1999/xlink" x="0px" y="0px"
	 viewBox="0 0 120 36" style="enable-background:new 0 0 120 36;" xml:space="preserve">
<style type="text/css">
	.st0{fill:#FFFFFF;}
</style>
<g>
	<g>
		<g>
			<path class="st0" d="M0.1,14.4C0.1,3.6,11.3,0.5,18.3,0.5c6.7,0,12.5,1.7,18.3,3.3c2.1-3.1,2.2-3.3,2.4-3.3c1,0,1.3,0.9,1.3,1.5
				c0,0.8-0.4,1.5-0.4,1.5l-0.6,1c0.5,0.1,1,0.2,1.5,0.4c3.5-2.4,7.5-4,11.8-4c1.6,0,5.5-0.1,5.5,3.1c0,3.5-4.1,3.7-5.7,3.7
				c-3.9,0-7.7-0.7-11.4-1.5c-2.3,1.5-4.3,3.4-6.1,5.4l-0.1,0.1h1.2c0.5,0,1.3,0.1,1.3,0.6c0,0.6-0.9,0.6-1.3,0.6h-2
				c-5.6,6.8-12.4,21.8-17.4,21.8c-2.3,0-5.4-0.7-5.4-3.5c0-0.9,1.1-3.3,5.6-3.3c1.2,0,2.1,0.6,2.1,1.1c0,0.6-0.9,1-2,1
				c-0.7,0-1.3-0.3-2.1-0.7c-1,0.4-2.4,1-2.4,1.9c0,1.4,2.3,2.3,3.8,2.3c2.6,0,8.2-11.7,13-18.9c-1.1-1.3-4.1-2-4.1-2.3
				c0-0.3,0-0.6,1.5-0.6h4.5C33,9.1,34.6,6.7,36,4.9c-5.8-1.6-11.3-3.2-17.6-3.2c-7.3,0-16,3.4-17.1,10.9c0.3,1.3,1,1.9,1,3.2
				c0,0.9-0.3,1.4-0.7,1.5C0.9,17.3,0.1,16.1,0.1,14.4z M30.4,12.9h-1.3c0.3,0.2,0.6,0.5,0.9,0.8C30.2,13.4,30.3,13.2,30.4,12.9z
				 M37.6,7.5c0.7-0.6,1.3-1.1,2-1.7c-0.3-0.1-0.6-0.2-0.9-0.2L37.6,7.5z M57.2,4c0-1.8-2.8-1.9-4.6-1.9c-3.6,0-7.1,1.2-10.2,3.2
				c3.3,0.7,6.7,1.2,10.1,1.2C54.1,6.6,57.2,6.1,57.2,4z"/>
			<path class="st0" d="M42.7,23.3c0.3,0.2-0.5,1.6-1.1,2.5c-1.8,2.1-3,3-5.2,4.3c-2.1,1.1-7.6,4-8.8,0c-1.1-4.3,5.1-13.4,9.2-15.4
				c1.4-0.8,3.3-0.8,4,1c2.3,6.4-5.9,9.6-10.1,11.6c-0.4,0.1-0.7,0.2-1,0.3c-0.4,1-0.5,2-0.3,2.8c0.6,1.2,4.7-0.4,6.5-1.5
				c2.6-1.6,3.1-2.2,4.9-3.9C41.2,24.1,42.4,23.1,42.7,23.3z M30.2,26.1c4.4-1.8,10.5-5,9.3-9.5c-0.3-0.6-1.3,0-2.3,0.8
				C34.5,19.3,31.9,22.8,30.2,26.1z"/>
			<path class="st0" d="M54.3,23.3c0.3,0.2-0.5,1.6-1.1,2.5c-1.8,2.1-3,3-5.2,4.3c-2.1,1.1-7.6,4-8.8,0c-1.1-4.3,5.1-13.4,9.2-15.4
				c1.4-0.8,3.3-0.8,4,1c2.3,6.4-5.9,9.6-10.1,11.6c-0.4,0.1-0.7,0.2-1,0.3c-0.4,1-0.5,2-0.3,2.8c0.6,1.2,4.7-0.4,6.5-1.5
				c2.6-1.6,3.1-2.2,4.9-3.9C52.8,24.1,53.9,23.1,54.3,23.3z M41.8,26.1c4.4-1.8,10.5-5,9.3-9.5c-0.3-0.6-1.3,0-2.3,0.8
				C46.1,19.3,43.4,22.8,41.8,26.1z"/>
			<path class="st0" d="M52.8,30c0,0.7,0.4,0.8,0.8,0.8c1.7,0,6.9-4.1,6.9-4.3c0.1-0.1,0.7-0.2,0.7,0.1c0.1,0.6-0.7,1.1-0.7,1.1
				c-5.2,4.6-6.9,4.3-7.1,4.3c-2.3,0.1-2.1-2.1-2.1-2.1c0-7.3,16.6-27.2,17.2-27.2c0.4-0.4,0.7-0.5,0.9-0.5c0.7,0,0.9,1,0.9,1.3
				c0,0.9-0.5,1.6-0.5,1.6L63,13.6C53,26.8,52.8,29.3,52.8,30z"/>
		</g>
		<g>
			<path class="st0" d="M69.9,24.6v6.3h-3.1v-15h10.7v2.6h-7.5v3.4h6.6v2.6H69.9z"/>
			<path class="st0" d="M84.4,31.4c-2.3,0-4.1-0.7-5.3-2c-1.2-1.4-1.9-3.3-1.9-5.8c0-1.3,0.2-2.4,0.5-3.4c0.3-1,0.8-1.9,1.4-2.6
				c0.6-0.7,1.4-1.2,2.3-1.6c0.9-0.4,1.9-0.6,3.1-0.6c1.1,0,2.2,0.2,3.1,0.6c0.9,0.4,1.6,0.9,2.2,1.6c0.6,0.7,1.1,1.6,1.4,2.6
				c0.3,1,0.5,2.2,0.5,3.4c0,2.6-0.6,4.5-1.8,5.8C88.5,30.7,86.7,31.4,84.4,31.4z M84.4,28.7c0.6,0,1.1-0.1,1.6-0.3
				c0.5-0.2,0.9-0.5,1.3-0.9c0.4-0.4,0.7-0.9,0.9-1.6c0.2-0.6,0.3-1.4,0.3-2.3c0-1.8-0.3-3.1-1-4c-0.7-0.9-1.7-1.4-3-1.4
				c-1.3,0-2.3,0.5-3,1.4c-0.7,0.9-1.1,2.3-1.1,4c0,1.8,0.4,3.1,1.1,3.9C82.1,28.3,83.1,28.7,84.4,28.7z"/>
			<path class="st0" d="M99.4,31.4c-2.3,0-4.1-0.7-5.3-2c-1.2-1.4-1.9-3.3-1.9-5.8c0-1.3,0.2-2.4,0.5-3.4c0.3-1,0.8-1.9,1.4-2.6
				c0.6-0.7,1.4-1.2,2.3-1.6c0.9-0.4,1.9-0.6,3.1-0.6c1.1,0,2.2,0.2,3.1,0.6c0.9,0.4,1.6,0.9,2.2,1.6c0.6,0.7,1.1,1.6,1.4,2.6
				c0.3,1,0.5,2.2,0.5,3.4c0,2.6-0.6,4.5-1.8,5.8C103.5,30.7,101.7,31.4,99.4,31.4z M99.4,28.7c0.6,0,1.1-0.1,1.6-0.3
				c0.5-0.2,0.9-0.5,1.3-0.9c0.4-0.4,0.7-0.9,0.9-1.6c0.2-0.6,0.3-1.4,0.3-2.3c0-1.8-0.3-3.1-1-4c-0.7-0.9-1.7-1.4-3-1.4
				c-1.3,0-2.3,0.5-3,1.4c-0.7,0.9-1.1,2.3-1.1,4c0,1.8,0.4,3.1,1.1,3.9C97.1,28.3,98.1,28.7,99.4,28.7z"/>
			<path class="st0" d="M107.4,30.9v-15h5.8c1,0,1.9,0.2,2.8,0.5c0.9,0.3,1.6,0.8,2.2,1.5c0.6,0.6,1.1,1.4,1.4,2.3
				c0.3,0.9,0.5,1.9,0.5,3.1c0,1.1-0.2,2.2-0.5,3.1c-0.3,0.9-0.7,1.7-1.3,2.4c-0.6,0.7-1.3,1.2-2.1,1.6c-0.8,0.4-1.7,0.6-2.6,0.6
				H107.4z M113,28.3c1.4,0,2.4-0.4,3-1.3c0.6-0.8,0.9-2.1,0.9-3.8c0-0.8-0.1-1.6-0.2-2.2c-0.2-0.6-0.4-1.1-0.7-1.5
				c-0.3-0.4-0.8-0.7-1.3-0.8c-0.5-0.2-1.2-0.3-1.9-0.3h-2.3v9.8H113z"/>
		</g>
	</g>
</g>
</svg>
